# xmcd
#
# Track frame offsets: 
#        182
#        12915
#        18012
#        29207
#        40482
#        47925
#        55290
#        61807
#        70960
#        79292
#        89665
#        100870
#        113277
#        117720
#        130665
#        149102
#        174620
#        190315
#        222015
#        232975
#        253700
#        264027
#        274227
#        288795
#        302082
#        313492
#
# Disc length: 4373 seconds
#
# Revision: 9
# Processed by: cddbd v1.5.2PL0 Copyright (c) Steve Scherf et al.
# Submitted via: ExactAudioCopy v1.0b1
#
DISCID=8411131a
DTITLE=Hank Williams - The Complete Hank Williams [CD 09)
DYEAR=1998
DGENRE=Country
TTITLE0=There's A Tear In My Beer
TTITLE1=The Alabama Waltz
TTITLE2=Jesus Died For Me
TTITLE3=A Teardrop On A Rose
TTITLE4=Jesus Is Calling
TTITLE5=Wearin' Out Your Walking Shoes
TTITLE6=When The Book Of Life Is Read
TTITLE7=There's Nothing As Sweet As My Baby
TTITLE8=(I'm Gonna) Sing, Sing, Sing
TTITLE9=I Can't Escape From You
TTITLE10=Weary Blues From Waitin'
TTITLE11=Are You Walkin' And A Talkin' For The Lord
TTITLE12=If You'll Be A Baby To Me
TTITLE13='Neath A Cold Gray Tomb Of Stone
TTITLE14=Lost Highway
TTITLE15=I'm A Long Gone Daddy
TTITLE16=Long Gone Lonesome Blues
TTITLE17=Help Me Understand
TTITLE18=When God Dips His Pen Of Love In My Heart
TTITLE19=They'll Never Take Her Love From Me
TTITLE20=Are You Walkin' And A Talkin' For The Lord
TTITLE21=Honky Tonkin'
TTITLE22=I Cried Again
TTITLE23=The Wild Side Of Life
TTITLE24=Something Got A Hold Of Me
TTITLE25=Drifting Too Far From The Shore
EXTD=YEAR: 1998
EXTT0=
EXTT1=
EXTT2=
EXTT3=
EXTT4=
EXTT5=
EXTT6=
EXTT7=
EXTT8=
EXTT9=
EXTT10=
EXTT11=
EXTT12=
EXTT13=
EXTT14=
EXTT15=
EXTT16=
EXTT17=
EXTT18=
EXTT19=
EXTT20=
EXTT21=
EXTT22=
EXTT23=
EXTT24=
EXTT25=
PLAYORDER=
